<svg xmlns="http://www.w3.org/2000/svg" xmlns:xlink="http://www.w3.org/1999/xlink" version="1.1" x="0px" y="0px" viewBox="0 0 100 125" enable-background="new 0 0 100 100" xml:space="preserve"><g><circle fill="#000000" cx="44.554" cy="21.085" r="9.79"/><path fill="#000000" d="M44.897,18.337c-11.232,0-25.447,2.918-25.447,8.319c0,1.281,0.692,2.421,1.87,3.418l5.5,60.967L26.909,92   h0.263c1.641,7,8.946,6.897,17.725,6.897C53.679,98.897,60.979,99,62.62,92h0.269l0.084-0.959l5.502-61.324   c1.179-0.996,1.867-1.779,1.867-3.061C70.342,21.255,56.129,18.337,44.897,18.337z M44.897,33.937   c-12.222,0-24.407-3.258-24.407-7.28c0-4.025,12.185-7.279,24.407-7.279c12.223,0,24.409,3.254,24.409,7.279   C69.306,30.679,57.12,33.937,44.897,33.937z"/><path fill="#000000" d="M44.555,11.295c-5.407,0-9.791,4.385-9.791,9.791c0,5.405,4.384,9.788,9.791,9.788   c5.406,0,9.789-4.383,9.789-9.788C54.344,15.68,49.961,11.295,44.555,11.295z M44.026,13.254c-0.168,0.017-0.369,0.057-0.597,0.119   c-0.228,0.056-0.484,0.114-0.75,0.221c-0.133,0.048-0.272,0.1-0.417,0.151c-0.138,0.065-0.281,0.134-0.428,0.204   c-0.298,0.124-0.577,0.327-0.878,0.499c-0.277,0.215-0.577,0.409-0.835,0.666c-0.278,0.231-0.512,0.516-0.756,0.78   c-0.214,0.295-0.442,0.57-0.611,0.882c-0.196,0.291-0.324,0.616-0.471,0.907c-0.104,0.316-0.24,0.602-0.298,0.897   c-0.037,0.144-0.073,0.283-0.108,0.418c-0.02,0.138-0.04,0.271-0.059,0.398c-0.05,0.259-0.052,0.476-0.059,0.664   c-0.005,0.096-0.01,0.184-0.015,0.265c0.004,0.103,0.008,0.197,0.011,0.281c0.013,0.341,0.021,0.535,0.021,0.535l-2.257-0.113   c0,0,0.028-0.193,0.077-0.532c0.012-0.083,0.024-0.178,0.04-0.278c0.027-0.121,0.055-0.252,0.085-0.392   c0.06-0.278,0.13-0.591,0.247-0.892c0.053-0.153,0.109-0.314,0.168-0.48c0.073-0.159,0.149-0.324,0.227-0.493   c0.141-0.344,0.366-0.669,0.563-1.016c0.239-0.322,0.463-0.668,0.752-0.97c0.263-0.321,0.584-0.598,0.887-0.882   c0.333-0.253,0.652-0.517,1.007-0.718c0.334-0.228,0.704-0.385,1.043-0.557c0.361-0.13,0.691-0.286,1.032-0.36   c0.167-0.045,0.329-0.088,0.485-0.131c0.16-0.026,0.313-0.052,0.461-0.077c0.294-0.06,0.566-0.071,0.806-0.085   c0.24-0.022,0.448-0.023,0.621-0.01c0.341,0.014,0.536,0.021,0.536,0.021S44.363,13.206,44.026,13.254z"/><path fill="#000000" d="M33.074,16.262c0,0-1.423-3.32-6.262-6.356c-4.838-3.036-3.7-7.687-1.043-7.971   c2.657-0.285,4.839,0.569,6.262,5.408C33.454,12.181,33.227,13.037,33.074,16.262z"/><path fill="#000000" d="M57.81,15.284c0,0,2.496-2.61,8.091-3.761c5.596-1.149,6.158-5.903,3.77-7.1   c-2.39-1.197-4.732-1.162-7.76,2.872C58.883,11.329,58.795,12.211,57.81,15.284z"/><path fill="#000000" d="M53.593,8.797c0,0,0.535-1.92,2.958-3.934c2.424-2.015,1.461-4.475-0.013-4.436s-2.604,0.666-3.028,3.416   C53.087,6.593,53.272,7.046,53.593,8.797z"/><path fill="#000000" d="M30.464,18.016c0,0-1.708-1.027-4.853-0.826c-3.145,0.203-4.134-2.247-3.036-3.231   c1.097-0.983,2.349-1.305,4.546,0.402C29.318,16.066,29.494,16.523,30.464,18.016z"/></g><text x="0" y="115" fill="#000000" font-size="5px" font-weight="bold" font-family="'Helvetica Neue', Helvetica, Arial-Unicode, Arial, Sans-serif">Created by Rohan Gupta</text><text x="0" y="120" fill="#000000" font-size="5px" font-weight="bold" font-family="'Helvetica Neue', Helvetica, Arial-Unicode, Arial, Sans-serif">from the Noun Project</text></svg>